<svg width="33" height="22" viewBox="0 0 33 22" fill="none" xmlns="http://www.w3.org/2000/svg">
<path d="M18.2199 5.20005H0.780199C0.570554 5.20005 0.400391 4.88655 0.400391 4.49981C0.400391 4.11306 0.570547 3.80005 0.780199 3.80005H18.2206C18.4302 3.80005 18.6004 4.11306 18.6004 4.49981C18.6004 4.88655 18.4302 5.20005 18.2206 5.20005H18.2199Z" fill="#919191"/>
<path d="M11.2213 10.8001H0.779232C0.570121 10.8001 0.400391 10.4871 0.400391 10.1004C0.400391 9.71364 0.570114 9.40015 0.779232 9.40015H11.2213C11.4307 9.40015 11.6004 9.71364 11.6004 10.1004C11.6004 10.4871 11.4307 10.8001 11.2213 10.8001Z" fill="#919191"/>
<path d="M11.2213 16.4H0.779232C0.570121 16.4 0.400391 16.087 0.400391 15.7002C0.400391 15.3135 0.570114 15 0.779232 15H11.2213C11.4307 15 11.6004 15.3135 11.6004 15.7002C11.6004 16.087 11.4307 16.4 11.2213 16.4Z" fill="#919191"/>
<path d="M21.0199 22.0001H0.780835C0.570839 22.0001 0.400391 21.6871 0.400391 21.3003C0.400391 20.9136 0.570832 20.6001 0.780835 20.6001H21.0199C21.2299 20.6001 21.4004 20.9136 21.4004 21.3003C21.4004 21.6871 21.2299 22.0001 21.0199 22.0001Z" fill="#919191"/>
<path d="M16.097 17.8C16.005 17.7998 15.9184 17.757 15.8623 17.6837C15.8063 17.6104 15.7871 17.5153 15.8106 17.426L17.0054 12.905C17.1176 12.4797 17.3399 12.0919 17.6498 11.7809L28.2965 1.08721C28.4123 0.970931 28.5998 0.970931 28.7156 1.08721L32.514 4.90212C32.6297 5.01839 32.6297 5.20672 32.514 5.323L21.8809 16.0023C21.5611 16.3235 21.1601 16.5509 20.721 16.6599L16.168 17.7911C16.1449 17.7969 16.121 17.8 16.097 17.8ZM28.5056 1.71912L18.0679 12.2017C17.8322 12.4387 17.6629 12.7339 17.5771 13.0574L16.5101 17.0926L20.577 16.0806C20.9113 15.9976 21.2167 15.8244 21.4602 15.58L31.8847 5.11278L28.5056 1.71912Z" fill="black"/>
<path d="M25.4884 4.33598L25.9075 3.9151L29.7555 7.77982L29.3364 8.2007L25.4884 4.33598Z" fill="black"/>
<path d="M23.5288 6.30373L23.9478 5.88286L27.7958 9.74757L27.3768 10.1685L23.5288 6.30373Z" fill="black"/>
<path d="M19.422 12.7684C19.3021 12.7684 19.194 12.6957 19.1481 12.5846C19.1024 12.4733 19.1276 12.3454 19.2124 12.2603L21.0075 10.4576C21.0629 10.4001 21.1388 10.3675 21.2181 10.3667C21.2977 10.3661 21.374 10.3974 21.4302 10.4539C21.4865 10.5104 21.5177 10.5872 21.5171 10.6669C21.5165 10.7469 21.4838 10.8231 21.4267 10.8785L19.6316 12.6812C19.576 12.737 19.5006 12.7684 19.422 12.7684Z" fill="black"/>
<path d="M23.0071 9.16822C22.8872 9.16822 22.7793 9.09576 22.7334 8.98447C22.6875 8.87338 22.7129 8.74527 22.7975 8.66014L23.0224 8.43423C23.1386 8.32148 23.3236 8.32315 23.438 8.43797C23.5523 8.55279 23.5539 8.73841 23.4417 8.85511L23.2167 9.08102C23.1611 9.13708 23.0857 9.16843 23.0071 9.16822Z" fill="black"/>
<path fill-rule="evenodd" clip-rule="evenodd" d="M27.532 9.2705L28.8609 7.93617L25.6938 4.75531L24.3651 6.08977L27.532 9.2705ZM24.1534 6.30236L27.3203 9.48306L27.1129 9.69132L23.946 6.51064L24.1534 6.30236ZM23.7343 6.72323L18.1738 12.3076C18.1738 12.3077 18.1738 12.3076 18.1738 12.3076C17.9568 12.5258 17.8007 12.7979 17.7217 13.096L16.7196 16.8859L20.5404 15.9351C20.8481 15.8587 21.1293 15.6993 21.3536 15.4742C21.3536 15.4742 21.3536 15.4743 21.3536 15.4742L26.9012 9.90389L23.7343 6.72323ZM27.3246 9.90392L27.532 9.69566L27.5837 9.74767L27.3764 9.95595L27.3246 9.90392ZM25.9055 4.54272L29.0726 7.72361L29.28 7.51535L26.1129 4.33444L25.9055 4.54272ZM26.3245 4.12185L29.4917 7.30278L31.6726 5.11287L28.5052 1.93181L26.3245 4.12185ZM29.4916 7.72794L29.2842 7.9362L29.336 7.9882L29.5434 7.77992L29.4916 7.72794ZM28.1898 0.981469C28.3642 0.806307 28.6471 0.806307 28.8215 0.981469L32.6199 4.79638C32.7939 4.97118 32.7939 5.25413 32.6199 5.42893L21.9869 16.1082C21.6478 16.4488 21.2225 16.6899 20.7567 16.8055C20.7567 16.8055 20.7567 16.8055 20.7567 16.8055L16.2042 17.9366C16.1698 17.9453 16.1336 17.9501 16.0966 17.9501C15.9581 17.9498 15.8272 17.8853 15.7428 17.7749C15.6587 17.665 15.6298 17.5222 15.6652 17.3879L16.8599 12.8668C16.8599 12.8668 16.8599 12.8668 16.8599 12.8668C16.9789 12.4161 17.2145 12.0049 17.5431 11.6751L28.1898 0.981469ZM21.2166 10.2168C21.3365 10.2158 21.4515 10.2631 21.5362 10.3481C21.6208 10.4332 21.6676 10.5486 21.6667 10.6682C21.6658 10.7878 21.6171 10.9019 21.5319 10.9852L19.7376 12.7871C19.7376 12.7871 19.7376 12.7871 19.7376 12.7871C19.6538 12.8712 19.5402 12.9185 19.4216 12.9185C19.2406 12.9185 19.078 12.8088 19.0091 12.642C18.9406 12.4752 18.9781 12.2827 19.1057 12.1546L20.9 10.3527C20.9832 10.2668 21.0975 10.218 21.2166 10.2168Z" fill="black"/>
</svg>
